# xmcd CD database file
# Copyright (C) 1996 Ti Kan
#
# Track frame offsets:
#	150
#	12704
#	24400
#	41327
#	54528
#	66976
#	77105
#	86838
#	103044
#	119666
#	132769
#	148365
#	166838
#	188107
#	205869
#	224885
#	238661
#	254236
#	278571
#	295187
# Disc length: 4190 seconds
#
# Revision: 1
# Processed by: cddbd v1.4PL0 Copyright (c) Steve Scherf et al.
# Submitted via: CDCOPY 4.900
#
DISCID=3d105c14
DTITLE=Udo Jürgens - Best of Udo Jürgens
DYEAR=1900
DGENRE=
TTITLE0=Merci Chérie
TTITLE1=17 Jahr Blondes Haar
TTITLE2=Sag ihr, ich lass sie grüßen
TTITLE3=Anuschka
TTITLE4=Mathilda
TTITLE5=Es wird Nacht Sensorita
TTITLE6=Cottonfields
TTITLE7=Aber bitte mit Sahne
TTITLE8=Gaby wartet im Park
TTITLE9=Tante Emma
TTITLE10=Ehrenwertes Haus
TTITLE11=Griechischer Wein
TTITLE12=Ich war noch niemals in New York
TTITLE13=Paris, einfach nur so zum Spaß
TTITLE14=Das ist dein Tag
TTITLE15=Vielen Dank für die Blumen
TTITLE16=Buenos Dias Argentina
TTITLE17=Tausend Jahre sind ein Tag
TTITLE18=Mit 66 Jahren
TTITLE19=Ich glaube
EXTD=
EXTT0=
EXTT1=
EXTT2=
EXTT3=
EXTT4=
EXTT5=
EXTT6=
EXTT7=
EXTT8=
EXTT9=
EXTT10=
EXTT11=
EXTT12=
EXTT13=
EXTT14=
EXTT15=
EXTT16=
EXTT17=
EXTT18=
EXTT19=
PLAYORDER=
